<?xml version="1.0" encoding="utf-8"?>
<!-- Generator: Adobe Illustrator 16.0.4, SVG Export Plug-In . SVG Version: 6.00 Build 0)  -->
<!DOCTYPE svg PUBLIC "-//W3C//DTD SVG 1.1//EN" "http://www.w3.org/Graphics/SVG/1.1/DTD/svg11.dtd">
<svg version="1.1" id="レイヤー_1" xmlns="http://www.w3.org/2000/svg" xmlns:xlink="http://www.w3.org/1999/xlink" x="0px"
	 y="0px" width="850.861px" height="138.9px" viewBox="0 0 850.861 138.9" enable-background="new 0 0 850.861 138.9"
	 xml:space="preserve">
<polygon points="10.887,11.091 83.563,11.091 83.563,14.204 13.844,14.204 13.844,66.493 78.74,66.493 78.74,69.605 13.844,69.605 
	13.844,124.695 83.563,124.695 83.563,127.808 10.887,127.808 "/>
<g>
	<defs>
		<rect id="SVGID_1_" width="850.861" height="138.9"/>
	</defs>
	<clipPath id="SVGID_2_">
		<use xlink:href="#SVGID_1_"  overflow="visible"/>
	</clipPath>
	<path clip-path="url(#SVGID_2_)" d="M83.563,128.343H10.887c-0.295,0-0.535-0.239-0.535-0.535V11.091
		c0-0.296,0.24-0.535,0.535-0.535h72.676c0.295,0,0.535,0.239,0.535,0.535v3.113c0,0.296-0.24,0.535-0.535,0.535H14.379v51.219
		H78.74c0.294,0,0.535,0.239,0.535,0.535v3.112c0,0.295-0.241,0.535-0.535,0.535H14.379v54.02h69.184
		c0.295,0,0.535,0.24,0.535,0.535v3.113C84.098,128.104,83.858,128.343,83.563,128.343 M11.422,127.273h71.606v-2.043H13.844
		c-0.295,0-0.535-0.239-0.535-0.535v-55.09c0-0.296,0.24-0.535,0.535-0.535h64.361v-2.042H13.844c-0.295,0-0.535-0.239-0.535-0.535
		V14.204c0-0.296,0.24-0.535,0.535-0.535h69.184v-2.043H11.422V127.273z"/>
	<polygon clip-path="url(#SVGID_2_)" points="229.544,14.048 171.028,72.407 112.672,14.048 112.672,127.808 109.558,127.808 
		109.558,11.091 114.072,11.091 171.028,68.205 228.142,11.091 232.656,11.091 232.656,127.808 229.544,127.808 	"/>
	<path clip-path="url(#SVGID_2_)" d="M232.656,128.343h-3.112c-0.295,0-0.535-0.239-0.535-0.535V15.338l-57.602,57.447
		c-0.211,0.208-0.55,0.207-0.757-0.001L113.207,15.34v112.468c0,0.296-0.241,0.535-0.535,0.535h-3.114
		c-0.295,0-0.535-0.239-0.535-0.535V11.091c0-0.296,0.24-0.535,0.535-0.535h4.514c0.142,0,0.278,0.057,0.378,0.157l56.578,56.734
		l56.736-56.734c0.1-0.1,0.236-0.157,0.378-0.157h4.514c0.294,0,0.535,0.239,0.535,0.535v116.717
		C233.191,128.104,232.95,128.343,232.656,128.343 M230.079,127.273h2.042V11.626h-3.758l-56.956,56.957
		c-0.101,0.1-0.237,0.157-0.379,0.157s-0.278-0.057-0.378-0.157l-56.8-56.957h-3.757v115.647h2.044V14.048
		c0-0.216,0.129-0.411,0.33-0.494c0.2-0.085,0.43-0.038,0.583,0.116l57.978,57.98l58.138-57.981
		c0.152-0.153,0.382-0.198,0.583-0.115c0.2,0.083,0.33,0.278,0.33,0.494V127.273z"/>
	<path clip-path="url(#SVGID_2_)" d="M312.754,18.75c28.121,0,50.835,22.578,50.835,50.7c0,28.121-22.714,50.7-50.835,50.7
		c-28.122,0-50.7-22.579-50.7-50.7C262.054,41.328,284.632,18.75,312.754,18.75 M312.754,117.581
		c26.77,0,48.266-21.361,48.266-48.131c0-26.769-21.496-48.131-48.266-48.131s-48.131,21.362-48.131,48.131
		C264.623,96.219,285.984,117.581,312.754,117.581"/>
	<path clip-path="url(#SVGID_2_)" d="M312.754,120.684c-28.252,0-51.235-22.984-51.235-51.234c0-28.251,22.983-51.234,51.235-51.234
		c28.325,0,51.369,22.983,51.369,51.234C364.123,97.7,341.079,120.684,312.754,120.684 M312.754,19.286
		c-27.66,0-50.165,22.503-50.165,50.164s22.505,50.164,50.165,50.164c27.735,0,50.299-22.503,50.299-50.164
		S340.489,19.286,312.754,19.286 M312.754,118.116c-27.29,0-48.667-21.377-48.667-48.666c0-27.29,21.377-48.666,48.667-48.666
		c26.908,0,48.8,21.831,48.8,48.666C361.554,96.284,339.662,118.116,312.754,118.116 M312.754,21.854
		c-26.691,0-47.597,20.906-47.597,47.596c0,26.689,20.906,47.596,47.597,47.596c26.319,0,47.73-21.352,47.73-47.596
		C360.484,43.205,339.073,21.854,312.754,21.854"/>
	<rect x="391.342" y="73.509" clip-path="url(#SVGID_2_)" width="61.314" height="2.801"/>
	<path clip-path="url(#SVGID_2_)" d="M452.656,76.845h-61.314c-0.294,0-0.535-0.239-0.535-0.535v-2.801
		c0-0.296,0.241-0.535,0.535-0.535h61.314c0.295,0,0.535,0.239,0.535,0.535v2.801C453.191,76.606,452.951,76.845,452.656,76.845
		 M391.877,75.775h60.244v-1.731h-60.244V75.775z"/>
	<path clip-path="url(#SVGID_2_)" d="M573.583,111.481c-10.583,10.583-25.212,17.118-41.396,17.118
		c-32.214,0-58.359-26.146-58.359-58.359c0-32.213,26.146-58.357,58.359-58.357c16.028,0,30.502,6.38,41.085,16.807l-2.18,2.022
		c-9.96-9.804-23.654-15.872-38.905-15.872c-30.657,0-55.402,24.744-55.402,55.4c0,30.658,24.745,55.402,55.402,55.402
		c15.251,0,29.257-6.381,39.216-16.495L573.583,111.481z"/>
	<path clip-path="url(#SVGID_2_)" d="M532.187,129.134c-32.476,0-58.895-26.42-58.895-58.894c0-32.475,26.419-58.894,58.895-58.894
		c15.636,0,30.36,6.024,41.461,16.961c0.102,0.102,0.161,0.243,0.159,0.389s-0.065,0.285-0.172,0.384l-2.18,2.023
		c-0.211,0.196-0.537,0.19-0.739-0.011c-10.297-10.136-23.98-15.719-38.529-15.719c-30.254,0-54.867,24.612-54.867,54.866
		c0,30.253,24.613,54.866,54.867,54.866c14.459,0,28.613-5.954,38.836-16.336c0.103-0.104,0.253-0.191,0.387-0.16
		c0.146,0.003,0.286,0.064,0.384,0.172l2.181,2.334c0.195,0.21,0.191,0.539-0.013,0.742
		C562.82,122.999,547.985,129.134,532.187,129.134 M532.187,12.417c-31.884,0-57.824,25.939-57.824,57.823
		c0,31.885,25.94,57.823,57.824,57.823c15.339,0,29.756-5.891,40.649-16.598l-1.445-1.549c-10.391,10.34-24.646,16.26-39.204,16.26
		c-30.843,0-55.938-25.093-55.938-55.937c0-30.843,25.095-55.937,55.938-55.937c14.66,0,28.458,5.561,38.914,15.669l1.396-1.293
		C561.644,18.188,547.352,12.417,532.187,12.417"/>
	<polygon clip-path="url(#SVGID_2_)" points="696.375,70.396 604.092,70.396 604.092,128.599 601.135,128.599 601.135,11.882 
		604.092,11.882 604.092,67.44 696.375,67.44 696.375,11.882 699.332,11.882 699.332,128.599 696.375,128.599 	"/>
	<path clip-path="url(#SVGID_2_)" d="M699.332,129.134h-2.957c-0.295,0-0.534-0.239-0.534-0.535V70.931h-91.214v57.668
		c0,0.296-0.241,0.535-0.535,0.535h-2.957c-0.295,0-0.535-0.239-0.535-0.535V11.882c0-0.296,0.24-0.535,0.535-0.535h2.957
		c0.294,0,0.535,0.239,0.535,0.535v55.023h91.214V11.882c0-0.296,0.239-0.535,0.534-0.535h2.957c0.296,0,0.535,0.239,0.535,0.535
		v116.717C699.867,128.895,699.628,129.134,699.332,129.134 M696.91,128.064h1.888V12.417h-1.888V67.44
		c0,0.295-0.239,0.535-0.535,0.535h-92.283c-0.295,0-0.535-0.24-0.535-0.535V12.417h-1.887v115.647h1.887V70.396
		c0-0.296,0.24-0.535,0.535-0.535h92.283c0.296,0,0.535,0.239,0.535,0.535V128.064z"/>
	<path clip-path="url(#SVGID_2_)" d="M779.962,20.332c28.121,0,50.835,22.578,50.835,50.7c0,28.121-22.714,50.7-50.835,50.7
		c-28.122,0-50.7-22.579-50.7-50.7C729.262,42.91,751.84,20.332,779.962,20.332 M779.962,119.163
		c26.77,0,48.266-21.361,48.266-48.131c0-26.769-21.496-48.131-48.266-48.131c-26.771,0-48.131,21.362-48.131,48.131
		C731.831,97.801,753.191,119.163,779.962,119.163"/>
	<path clip-path="url(#SVGID_2_)" d="M779.962,122.265c-28.252,0-51.235-22.983-51.235-51.233c0-28.251,22.983-51.234,51.235-51.234
		c28.325,0,51.369,22.983,51.369,51.234C831.331,99.282,808.287,122.265,779.962,122.265 M779.962,20.868
		c-27.66,0-50.165,22.503-50.165,50.164s22.505,50.164,50.165,50.164c27.735,0,50.299-22.503,50.299-50.164
		S807.697,20.868,779.962,20.868 M779.962,119.698c-27.29,0-48.667-21.377-48.667-48.666c0-27.29,21.377-48.666,48.667-48.666
		c26.908,0,48.8,21.831,48.8,48.666C828.762,97.866,806.87,119.698,779.962,119.698 M779.962,23.436
		c-26.69,0-47.597,20.906-47.597,47.596c0,26.688,20.906,47.596,47.597,47.596c26.319,0,47.73-21.352,47.73-47.596
		C827.692,44.787,806.281,23.436,779.962,23.436"/>
	<path clip-path="url(#SVGID_2_)" fill="#B61D22" d="M366.03,129.414H259.611c-4.303,0-7.805-3.502-7.805-7.807V17.292
		c0-4.303,3.502-7.805,7.805-7.805H366.03c4.303,0,7.806,3.502,7.806,7.805v104.315C373.836,125.912,370.333,129.414,366.03,129.414
		 M259.611,12.696c-2.535,0-4.595,2.062-4.595,4.595v104.315c0,2.534,2.06,4.597,4.595,4.597H366.03
		c2.535,0,4.596-2.062,4.596-4.597V17.292c0-2.533-2.061-4.595-4.596-4.595H259.611z"/>
	<path clip-path="url(#SVGID_2_)" fill="#0C5091" d="M833.238,129.414H726.819c-4.303,0-7.806-3.502-7.806-7.807V17.292
		c0-4.303,3.503-7.805,7.806-7.805h106.419c4.303,0,7.806,3.502,7.806,7.805v104.315
		C841.044,125.912,837.541,129.414,833.238,129.414 M726.819,12.696c-2.535,0-4.595,2.062-4.595,4.595v104.315
		c0,2.534,2.06,4.597,4.595,4.597h106.419c2.535,0,4.596-2.062,4.596-4.597V17.292c0-2.533-2.061-4.595-4.596-4.595H726.819z"/>
	<path clip-path="url(#SVGID_2_)" d="M313.145,101.124c-0.566,0-1.133-0.012-1.699-0.037c-21.309-0.93-35.518-18.901-36.111-19.664
		c-0.546-0.7-0.418-1.708,0.28-2.253c0.7-0.548,1.709-0.418,2.253,0.28c0.138,0.177,13.928,17.581,33.743,18.433
		c12.685,0.557,25.119-5.695,37.037-18.538c0.602-0.65,1.622-0.686,2.268-0.084c0.649,0.603,0.687,1.617,0.085,2.268
		C338.929,94.538,326.2,101.124,313.145,101.124"/>
	<path clip-path="url(#SVGID_2_)" d="M743.103,61.65c-0.343,0-0.689-0.11-0.981-0.337c-0.7-0.545-0.828-1.553-0.282-2.253
		c0.593-0.764,14.802-18.736,36.11-19.666c13.639-0.614,26.956,5.983,39.556,19.559c0.602,0.65,0.563,1.666-0.086,2.269
		c-0.646,0.601-1.665,0.565-2.268-0.085c-11.926-12.854-24.421-19.089-37.062-18.536c-19.842,0.866-33.581,18.254-33.719,18.429
		C744.056,61.437,743.582,61.65,743.103,61.65"/>
</g>
</svg>
